<svg xmlns="http://www.w3.org/2000/svg" width="106" height="28" viewBox="0 0 106 28">
  <g id="LOGO" transform="translate(-38 -21)">
    <text id="BMX" transform="translate(74 42)" fill="#f0b90b" font-size="19" font-family="CHANEY-UltraExtended, CHANEY"><tspan x="0" y="0">BMX</tspan></text>
    <path id="Icon_awesome-connectdevelop" data-name="Icon awesome-connectdevelop" d="M33.255,14.25,30.242,9.187a.916.916,0,0,0,.113-.422.9.9,0,0,0-.886-.875L26.133,2.3a.888.888,0,0,0,.064-.281.9.9,0,0,0-.918-.891.921.921,0,0,0-.709.328H18.157a.9.9,0,0,0-1.386,0H10.39a.921.921,0,0,0-.709-.328.9.9,0,0,0-.918.891.8.8,0,0,0,.064.281L5.46,7.969a.873.873,0,0,0-.548.8c0,.031.016.062.016.094L1.722,14.234a.9.9,0,0,0-.757.875.909.909,0,0,0,.725.875l3.319,5.563a.794.794,0,0,0-.048.281.879.879,0,0,0,.725.859L8.8,27.922a.983.983,0,0,0-.064.312.921.921,0,0,0,1.611.578h6.429a.924.924,0,0,0,1.386,0H24.6a.918.918,0,0,0,1.579-.609.63.63,0,0,0-.048-.25l3.11-5.266a.879.879,0,0,0,.725-.859.86.86,0,0,0-.048-.281l3.3-5.563a.9.9,0,0,0,.741-.875.881.881,0,0,0-.709-.859ZM9.375,26.484,6.749,22.062H9.375Zm0-4.891H6.749a.944.944,0,0,0-.081-.187l2.707-2.766Zm0-3.641L6.346,21.062a1.534,1.534,0,0,0-.242-.094L2.753,15.344a.591.591,0,0,0,.032-.234.8.8,0,0,0-.016-.2l3.126-5.25A1.037,1.037,0,0,0,6.362,9.5l3.013,3.031v5.422Zm0-5.969L6.62,9.219a.835.835,0,0,0,.129-.453c0-.016-.016-.047-.016-.063l2.643-.922v4.2Zm0-4.7L6.749,8.2,9.375,3.8ZM29.017,9.562l.048.078-2.127,9.75L23.1,15.469,29,9.547l.016.016ZM17.69,20.906l.693.688h-1.37Zm-.016-.656-5.011-4.984,4.786-4.922,5,5.109Zm.322.344,4.77-4.8,4.061,4.156-.354,1.641h-7.46l-1.015-1ZM24.828,2.781a.823.823,0,0,0,.209.078l3.48,5.875v.031a.835.835,0,0,0,.129.453l-5.865,5.906-5-5.109Zm-.548-.125L17.448,9.672,14.016,6.156l10.006-3.5h.258Zm-7.428,0a.875.875,0,0,0,1.225,0h4.512L13.661,5.781,10.6,2.656h6.252Zm-6.993.328.064-.125q.082-.02.161-.047l3.078,3.141-3.3,1.156Zm0,4.625,3.658-1.281,3.593,3.687-4.786,4.906L9.859,12.469V7.609Zm0,5.406,2.191,2.2L9.859,17.453V13.016Zm0,5.125,2.53-2.594,4.979,5.016-1.031,1.031H9.859V18.141Zm.419,9.453a.871.871,0,0,0-.354-.2L9.859,27.3V22.062h6.01l-5.511,5.531h-.081Zm7.815,0a.915.915,0,0,0-1.257,0h-5.8l5.511-5.531h2.3l5.511,5.531H18.093Zm7.219-.688-.258.437a.825.825,0,0,0-.209.078l-5.366-5.359h6.88l-1.047,4.844Zm.773-1.3.773-3.547h1.321l-2.095,3.547Zm2.095-4.016H26.955l.274-1.234,1.031,1.062a.57.57,0,0,0-.081.172Zm3.98-6.266-3.335,5.641a1.648,1.648,0,0,0-.242.109L27.342,19.8l2.079-9.562,2.755,4.625a1.155,1.155,0,0,0-.048.25A1.025,1.025,0,0,0,32.159,15.328Z" transform="translate(37.036 19.875)" fill="#f0b90b"/>
  </g>
</svg>
